<svg version="1.1" xmlns="http://www.w3.org/2000/svg" viewBox="0 0 2048 2048" width="512" height="512" preserveAspectRatio="none" display="block"><path fill="rgb(255,255,255)" d="M 0 0 L 2048 0 L 2048 2048 L 0 2048 L 0 0 z" data-c-fill="ffffff" fill-opacity="0"/><path fill="rgb(227,131,91)" d="M 160.203 2.14963 C 177.808 16.6145 199.83 32.0453 218.35 46.4325 L 428.381 206.745 L 1023.72 663.617 L 1025.06 663.322 L 1552.17 258.689 L 1780.34 84.5798 C 1815.96 56.9841 1851.84 29.7372 1888 2.84302 L 1887.97 883.724 L 1887.83 1180.99 L 1887.82 1274.28 C 1887.79 1292.39 1887.29 1312.42 1888.04 1330.3 C 1890.05 1333.94 1888.68 1332.52 1892.41 1334.6 C 1898.45 1338.05 1913.72 1349.57 1919.45 1354.29 C 1915.45 1354.43 1889.01 1354.56 1886.92 1354.99 L 1886.66 1355.72 C 1880.51 1361.3 1873.97 1366.58 1867.53 1371.83 C 1824.14 1407.19 1780.68 1442.46 1737.39 1477.95 L 1396.58 1757.69 L 1305.75 1832.06 C 1291.81 1843.51 1271.67 1859.11 1259.32 1871.39 L 1257.98 1872.89 C 1253.07 1870.55 1228.86 1819.9 1224.41 1810.88 L 1191.8 1746.02 L 1075.24 1513.3 C 1058.7 1480.49 1041.21 1442.49 1023.94 1411.04 C 1007.54 1440.54 991.413 1476.04 975.849 1506.57 C 938.913 1578.35 902.694 1650.49 867.194 1723 L 821.967 1814.39 C 817.359 1823.74 796.33 1870.7 789.713 1870.92 L 786.843 1867.96 L 160.698 1355.79 L 160.329 1355.38 C 148.859 1354.99 139.521 1353.97 127.703 1354.18 C 139.353 1347.13 150.019 1335.9 159.993 1330.58 L 160.645 1326.29 C 158.683 1155.78 160.307 982.285 160.229 811.579 L 160.203 2.14963 z" data-c-fill="e3835b"/><path fill="rgb(65,68,71)" d="M 160.203 2.14963 C 177.808 16.6145 199.83 32.0453 218.35 46.4325 L 428.381 206.745 L 1023.72 663.617 C 1020.3 668.157 1016.66 668.612 1013.85 672.223 L 742.468 880.133 C 703.265 910.326 665.56 940.381 625.729 970.248 C 607.005 984.298 588.379 998.477 569.851 1012.78 C 562.306 1018.59 546.754 1031.92 539.236 1035.26 C 537.988 1037.58 537.253 1039.01 535.136 1040.74 C 507.028 1063.6 478.177 1085.62 449.627 1107.93 C 442.9 1113.19 433.949 1120.9 426.786 1125.14 C 450.845 1172.94 473.202 1222.54 497.355 1270.63 C 508.551 1292.92 528.981 1332.28 537.159 1354.41 C 522.291 1355.62 505.787 1355.21 490.756 1355.22 C 387.295 1355.3 283.818 1355.07 180.358 1355.06 C 175.238 1355.06 165.138 1354.37 160.698 1355.79 L 160.329 1355.38 C 148.859 1354.99 139.521 1353.97 127.703 1354.18 C 139.353 1347.13 150.019 1335.9 159.993 1330.58 L 160.645 1326.29 C 158.683 1155.78 160.307 982.285 160.229 811.579 L 160.203 2.14963 z" data-c-fill="414447"/><path fill="rgb(201,111,76)" d="M 382.902 1034.86 C 427.93 1033.3 494.314 1033.03 539.236 1035.26 C 537.988 1037.58 537.253 1039.01 535.136 1040.74 C 507.028 1063.6 478.177 1085.62 449.627 1107.93 C 442.9 1113.19 433.949 1120.9 426.786 1125.14 C 450.845 1172.94 473.202 1222.54 497.355 1270.63 C 508.551 1292.92 528.981 1332.28 537.159 1354.41 C 522.291 1355.62 505.787 1355.21 490.756 1355.22 C 387.295 1355.3 283.818 1355.07 180.358 1355.06 C 175.238 1355.06 165.138 1354.37 160.698 1355.79 L 160.329 1355.38 C 148.859 1354.99 139.521 1353.97 127.703 1354.18 C 139.353 1347.13 150.019 1335.9 159.993 1330.58 L 160.645 1326.29 C 161.003 1328.1 160.571 1327.32 162.001 1328.58 C 166.525 1326.42 172.252 1320.85 176.728 1317.51 C 196.7 1302.39 216.504 1287.04 236.135 1271.47 C 299.042 1221.91 362.524 1173.08 426.568 1124.99 C 411.362 1097.15 397.913 1063.63 382.902 1034.86 z" data-c-fill="c96f4c"/><path fill="rgb(227,131,91)" d="M 127.703 1354.18 C 139.353 1347.13 150.019 1335.9 159.993 1330.58 C 160.369 1333.47 160.036 1349.3 160.329 1355.38 C 148.859 1354.99 139.521 1353.97 127.703 1354.18 z" data-c-fill="e3835b"/><path fill="rgb(65,68,71)" d="M 1025.06 663.322 L 1552.17 258.689 L 1780.34 84.5798 C 1815.96 56.9841 1851.84 29.7372 1888 2.84302 L 1887.97 883.724 L 1887.83 1180.99 L 1887.82 1274.28 C 1887.79 1292.39 1887.29 1312.42 1888.04 1330.3 C 1890.05 1333.94 1888.68 1332.52 1892.41 1334.6 C 1898.45 1338.05 1913.72 1349.57 1919.45 1354.29 C 1915.45 1354.43 1889.01 1354.56 1886.92 1354.99 L 1886.66 1355.72 C 1883.07 1355.1 1867.53 1355.38 1863.18 1355.37 L 1810.54 1355.18 L 1604.42 1355.23 L 1544.75 1355.08 C 1534.71 1355.04 1520.2 1355.43 1510.62 1354.32 C 1512.29 1348.31 1531.29 1310 1534.79 1302.74 L 1598.25 1172.17 C 1603.82 1160.72 1618.13 1133.63 1620.62 1123.42 C 1609.92 1115.12 1511.41 1040.83 1508.76 1036.14 C 1508.46 1035.61 1508.21 1035.05 1507.94 1034.5 C 1501.05 1030.99 1481.94 1014.57 1474.55 1008.91 L 1374.72 932.308 L 1159.27 766.627 C 1134.41 747.846 1109.66 728.917 1085.02 709.838 C 1066.85 695.969 1048.99 682.938 1031.65 668.031 C 1030.49 667.033 1026.49 664.338 1025.06 663.322 z" data-c-fill="414447"/><path fill="rgb(201,111,76)" d="M 1507.94 1034.5 C 1521.77 1033.57 1539.55 1034.02 1553.64 1034.02 L 1629.27 1033.99 C 1640.2 1034.01 1654.88 1034.62 1665.33 1033.93 C 1658.25 1049.12 1651.66 1063.46 1644.15 1078.49 C 1636.97 1092.86 1627.98 1109.59 1621.88 1124.28 C 1634.95 1132.91 1650.15 1145.01 1662.78 1154.58 C 1695 1179.32 1727 1204.35 1758.77 1229.67 L 1850.24 1300.5 C 1863.34 1310.75 1875.38 1319.4 1888.04 1330.3 C 1890.05 1333.94 1888.68 1332.52 1892.41 1334.6 C 1898.45 1338.05 1913.72 1349.57 1919.45 1354.29 C 1915.45 1354.43 1889.01 1354.56 1886.92 1354.99 L 1886.66 1355.72 C 1883.07 1355.1 1867.53 1355.38 1863.18 1355.37 L 1810.54 1355.18 L 1604.42 1355.23 L 1544.75 1355.08 C 1534.71 1355.04 1520.2 1355.43 1510.62 1354.32 C 1512.29 1348.31 1531.29 1310 1534.79 1302.74 L 1598.25 1172.17 C 1603.82 1160.72 1618.13 1133.63 1620.62 1123.42 C 1609.92 1115.12 1511.41 1040.83 1508.76 1036.14 C 1508.46 1035.61 1508.21 1035.05 1507.94 1034.5 z" data-c-fill="c96f4c"/><path fill="rgb(227,131,91)" d="M 1892.41 1334.6 C 1898.45 1338.05 1913.72 1349.57 1919.45 1354.29 C 1915.45 1354.43 1889.01 1354.56 1886.92 1354.99 C 1892.47 1345.37 1889.93 1345.53 1892.05 1336.16 L 1892.41 1334.6 z" data-c-fill="e3835b"/><path fill="rgb(201,111,76)" d="M 1025.06 663.322 C 1026.49 664.338 1030.49 667.033 1031.65 668.031 L 1029.59 672.494 L 1141.21 883.131 C 1163.55 925.501 1186.03 969.663 1208.81 1011.6 L 1303.71 1187.89 C 1318.24 1215.21 1337.58 1249.01 1350.11 1276.26 C 1280.68 1245.72 1203.15 1216.33 1135.82 1183.58 C 1105.31 1252.07 1068.54 1318.44 1036.34 1386.16 C 1032.77 1393.67 1027.57 1401.61 1024.64 1409.1 L 1023.12 1409.19 C 1004.51 1376.38 988.122 1336.76 970.636 1303.02 C 950.515 1264.19 929.794 1224.93 911.797 1185.03 C 864.638 1204.42 817.265 1225.97 770.117 1245.81 C 750.678 1253.99 716.854 1266.8 699.191 1275.7 C 705.973 1260.05 715.949 1244.07 723.965 1228.76 C 743.905 1189.82 764.427 1151.18 785.524 1112.85 L 890.022 915.096 L 960.818 782.223 C 966.484 771.597 1015.87 681.247 1015.65 673.365 L 1013.85 672.223 C 1016.66 668.612 1020.3 668.157 1023.72 663.617 L 1025.06 663.322 z" data-c-fill="c96f4c"/><path fill="rgb(65,68,71)" d="M160.698 1355.79C165.138 1354.37 175.238 1355.06 180.358 1355.06 283.818 1355.07 387.295 1355.3 490.756 1355.22 505.787 1355.21 522.291 1355.62 537.159 1354.41 547.067 1371.4 558.714 1397.36 567.528 1415.66L614.585 1512.1 775.486 1841.4C777.823 1846.27 786.88 1863.94 786.843 1867.96L160.698 1355.79zM1510.62 1354.32C1520.2 1355.43 1534.71 1355.04 1544.75 1355.08L1604.42 1355.23 1810.54 1355.18 1863.18 1355.37C1867.53 1355.38 1883.07 1355.1 1886.66 1355.72 1880.51 1361.3 1873.97 1366.58 1867.53 1371.83 1824.14 1407.19 1780.68 1442.46 1737.39 1477.95L1396.58 1757.69 1305.75 1832.06C1291.81 1843.51 1271.67 1859.11 1259.32 1871.39 1259.6 1868.4 1268.1 1853.63 1270.13 1849.3 1304.61 1776.74 1339.69 1704.46 1375.37 1632.48L1451.09 1476.14C1469.54 1437.47 1490.37 1391.81 1510.62 1354.32zM1005.69 1778.32C1077.75 1768.13 1144.37 1818.43 1154.3 1890.52 1164.24 1962.61 1113.7 2029.06 1041.58 2038.73 969.811 2048.36 903.774 1998.14 893.889 1926.41 884.005 1854.68 933.996 1788.46 1005.69 1778.32z" data-c-fill="414447"/></svg>